<svg id="cctv" xmlns="http://www.w3.org/2000/svg" width="20.831" height="15.623" viewBox="0 0 20.831 15.623">
  <g id="Group_10" data-name="Group 10" transform="translate(0 0)">
    <g id="Group_9" data-name="Group 9">
      <path id="Path_41" data-name="Path 41" d="M20.612,71,8.843,64.264a2.14,2.14,0,0,0-2.749.617L3.814,68.14a1.9,1.9,0,0,0,.6,2.727L6.9,72.3l-.448.6a1.844,1.844,0,0,0,.022,2.261l-.661.994H2.6V74.847a.43.43,0,0,0-.434-.43H.434a.43.43,0,0,0-.434.43v4.344a.434.434,0,0,0,.434.434H2.17a.434.434,0,0,0,.434-.434v-.434H5.813A2.6,2.6,0,0,0,7.979,77.6l.711-1.068a1.965,1.965,0,0,0,.416.057,1.987,1.987,0,0,0,1.7-.961l.477-.8,3.693,2.133a.434.434,0,0,0,.605-.182l.321-.644c.053,0,.1.015.157.015a3.043,3.043,0,0,0,3.038-3.041,2.8,2.8,0,0,0-.068-.568l1.564-.782A.434.434,0,0,0,20.612,71ZM1.736,78.757H.868V75.286h.868v3.472Zm5.521-1.64a1.732,1.732,0,0,1-1.444.773H2.6v-.868H5.813a.864.864,0,0,0,.722-.387l.6-.9.745.447Zm2.8-1.936a1.142,1.142,0,0,1-1.523.381l-1.1-.66a1.013,1.013,0,0,1-.289-1.477l.511-.682L10.528,74.4Zm4.949.8L4.852,70.123a1.025,1.025,0,0,1-.327-1.475l1.09-1.556,10.74,6.2Zm1.332-.725.908-1.819.964-.482c0,.053.015.108.015.16A2.166,2.166,0,0,1,16.34,75.258Zm.6-2.635L6.114,66.378l.691-.986a1.221,1.221,0,0,1,1.607-.36l11.066,6.323Z" transform="translate(0 -64.002)" fill="#565656"/>
      <circle id="Ellipse_13" data-name="Ellipse 13" cx="0.434" cy="0.434" r="0.434" transform="translate(13.887 9.547)" fill="#565656"/>
    </g>
  </g>
</svg>
