<svg id="Feedback" xmlns="http://www.w3.org/2000/svg" width="110" height="20" viewBox="0 0 110 20">
  <g id="star">
    <rect id="Rectangle_46" data-name="Rectangle 46" width="20" height="20" transform="translate(20) rotate(90)" fill="#ff6f00" opacity="0"/>
    <path id="Path_9" data-name="Path 9" d="M14.449,17a.808.808,0,0,1-.368-.087L10,14.806,5.925,16.914a.808.808,0,0,1-.844-.061.785.785,0,0,1-.315-.776l.8-4.445L2.271,8.474a.783.783,0,0,1-.2-.79.8.8,0,0,1,.648-.537l4.558-.655L9.283,2.441a.8.8,0,0,1,1.439,0l2.031,4.043,4.558.655a.8.8,0,0,1,.648.537.783.783,0,0,1-.2.79l-3.294,3.158.8,4.445a.785.785,0,0,1-.32.79.807.807,0,0,1-.5.142Z" fill="#ff6f00"/>
  </g>
  <g id="star-2" data-name="star" transform="translate(23)">
    <rect id="Rectangle_46-2" data-name="Rectangle 46" width="20" height="20" transform="translate(20) rotate(90)" fill="#ff6f00" opacity="0"/>
    <path id="Path_9-2" data-name="Path 9" d="M14.449,17a.808.808,0,0,1-.368-.087L10,14.806,5.925,16.914a.808.808,0,0,1-.844-.061.785.785,0,0,1-.315-.776l.8-4.445L2.271,8.474a.783.783,0,0,1-.2-.79.8.8,0,0,1,.648-.537l4.558-.655L9.283,2.441a.8.8,0,0,1,1.439,0l2.031,4.043,4.558.655a.8.8,0,0,1,.648.537.783.783,0,0,1-.2.79l-3.294,3.158.8,4.445a.785.785,0,0,1-.32.79.807.807,0,0,1-.5.142Z" fill="#ff6f00"/>
  </g>
  <g id="star-3" data-name="star" transform="translate(45)">
    <rect id="Rectangle_46-3" data-name="Rectangle 46" width="20" height="20" transform="translate(20) rotate(90)" fill="#ff6f00" opacity="0"/>
    <path id="Path_9-3" data-name="Path 9" d="M14.449,17a.808.808,0,0,1-.368-.087L10,14.806,5.925,16.914a.808.808,0,0,1-.844-.061.785.785,0,0,1-.315-.776l.8-4.445L2.271,8.474a.783.783,0,0,1-.2-.79.8.8,0,0,1,.648-.537l4.558-.655L9.283,2.441a.8.8,0,0,1,1.439,0l2.031,4.043,4.558.655a.8.8,0,0,1,.648.537.783.783,0,0,1-.2.79l-3.294,3.158.8,4.445a.785.785,0,0,1-.32.79.807.807,0,0,1-.5.142Z" fill="#ff6f00"/>
  </g>
  <g id="star-4" data-name="star" transform="translate(68)">
    <rect id="Rectangle_46-4" data-name="Rectangle 46" width="20" height="20" transform="translate(20) rotate(90)" fill="#ff6f00" opacity="0"/>
    <path id="Path_9-4" data-name="Path 9" d="M14.449,17a.808.808,0,0,1-.368-.087L10,14.806,5.925,16.914a.808.808,0,0,1-.844-.061.785.785,0,0,1-.315-.776l.8-4.445L2.271,8.474a.783.783,0,0,1-.2-.79.8.8,0,0,1,.648-.537l4.558-.655L9.283,2.441a.8.8,0,0,1,1.439,0l2.031,4.043,4.558.655a.8.8,0,0,1,.648.537.783.783,0,0,1-.2.79l-3.294,3.158.8,4.445a.785.785,0,0,1-.32.79.807.807,0,0,1-.5.142Z" fill="#ff6f00"/>
  </g>
  <g id="star-5" data-name="star" transform="translate(90)">
    <rect id="Rectangle_46-5" data-name="Rectangle 46" width="20" height="20" transform="translate(20) rotate(90)" fill="#ff6f00" opacity="0"/>
    <path id="Path_9-5" data-name="Path 9" d="M14.449,17a.808.808,0,0,1-.368-.087L10,14.806,5.925,16.914a.808.808,0,0,1-.844-.061.785.785,0,0,1-.315-.776l.8-4.445L2.271,8.474a.783.783,0,0,1-.2-.79.8.8,0,0,1,.648-.537l4.558-.655L9.283,2.441a.8.8,0,0,1,1.439,0l2.031,4.043,4.558.655a.8.8,0,0,1,.648.537.783.783,0,0,1-.2.79l-3.294,3.158.8,4.445a.785.785,0,0,1-.32.79.807.807,0,0,1-.5.142Z" fill="#ff6f00"/>
  </g>
</svg>
