<svg id="office-chair-silhouette_1_" data-name="office-chair-silhouette (1)" xmlns="http://www.w3.org/2000/svg" width="15.628" height="24.613" viewBox="0 0 15.628 24.613">
  <path id="Path_12" data-name="Path 12" d="M49.8,9.84a.579.579,0,0,0-.578.579v3.327a1.736,1.736,0,0,1-1.435,1.707c-.182-.472-.835-.8-1.75-.8h-2.58l.035-.337c.013-.147.021-.284.021-.424h2.524a2.1,2.1,0,0,0,2.124-2.306l-.774-9.277A2.568,2.568,0,0,0,44.875,0h-4.63a2.569,2.569,0,0,0-2.508,2.307l-.774,9.277a2.1,2.1,0,0,0,2.124,2.306h2.525a4.011,4.011,0,0,0,.021.424l.035.337h-2.58c-.914,0-1.567.329-1.749.8A1.738,1.738,0,0,1,35.9,13.745V10.419a.578.578,0,1,0-1.156,0v3.327a2.9,2.9,0,0,0,2.895,2.9H37.8a3.931,3.931,0,0,0,2.446.83h1.7l.308,3.076H40.734a3.409,3.409,0,0,0-3.167,1.807l-.426,1.191a.6.6,0,0,0-.586.523.73.73,0,0,0,1.411,0,.5.5,0,0,0-.253-.406l.4-1.113a2.894,2.894,0,0,1,2.621-1.422h1.54v2.45a.555.555,0,0,0-.415.491.729.729,0,0,0,1.41,0,.554.554,0,0,0-.417-.491v-2.45h1.54a2.9,2.9,0,0,1,2.621,1.422l.4,1.113a.5.5,0,0,0-.253.406.73.73,0,0,0,1.411,0,.6.6,0,0,0-.586-.523l-.426-1.191a3.407,3.407,0,0,0-3.167-1.807H42.864l.308-3.076h1.7a3.922,3.922,0,0,0,2.444-.83h.159a2.9,2.9,0,0,0,2.9-2.9V10.419A.583.583,0,0,0,49.8,9.84Zm-10.039-5.5h5.605a.289.289,0,1,1,0,.579H39.758a.289.289,0,0,1,0-.579Zm0,1.736h5.605a.289.289,0,1,1,0,.579H39.758a.289.289,0,0,1,0-.579Zm0,2.317a.289.289,0,0,1,0-.578h5.605a.289.289,0,1,1,0,.578Z" transform="translate(-34.748)" fill="#fff"/>
</svg>
