<svg id="wifi-router" xmlns="http://www.w3.org/2000/svg" width="18" height="18" viewBox="0 0 18 18">
  <path id="Path_15" data-name="Path 15" d="M16.418,83.67H15.073l2.849-7.36a.609.609,0,0,0-.277-.767.51.51,0,0,0-.692.307l-3.027,7.82H4.074L1.047,75.85a.51.51,0,0,0-.692-.307.609.609,0,0,0-.277.767l2.849,7.36H1.582A1.675,1.675,0,0,0,0,85.421v3.5a1.675,1.675,0,0,0,1.582,1.752h.563V91.3a.558.558,0,0,0,.527.584A.558.558,0,0,0,3.2,91.3v-.623H14.8V91.3a.53.53,0,1,0,1.055,0v-.623h.562A1.675,1.675,0,0,0,18,88.924v-3.5A1.675,1.675,0,0,0,16.418,83.67Zm.527,5.255a.558.558,0,0,1-.527.584H1.582a.558.558,0,0,1-.527-.584v-3.5a.558.558,0,0,1,.527-.584H16.418a.558.558,0,0,1,.527.584Z" transform="translate(0 -73.882)" fill="#565656"/>
  <path id="Path_16" data-name="Path 16" d="M219.966,195.855a.4.4,0,1,0,.57.57.4.4,0,0,1,.567,0,.4.4,0,1,0,.57-.57,1.205,1.205,0,0,0-1.708,0Z" transform="translate(-211.82 -188.598)" fill="#565656"/>
  <path id="Path_17" data-name="Path 17" d="M93.514,17.844a10.579,10.579,0,0,1,10.985,0,.815.815,0,0,0,.845,0,.32.32,0,0,0,0-.57,12.208,12.208,0,0,0-12.676,0,.32.32,0,0,0,0,.57A.814.814,0,0,0,93.514,17.844Z" transform="translate(-90.007 -15.5)" fill="#565656"/>
  <path id="Path_18" data-name="Path 18" d="M141.337,77.372a.4.4,0,0,0,0-.57,4.433,4.433,0,0,0-6.274,0,.4.4,0,0,0,.571.57,3.626,3.626,0,0,1,5.133,0A.4.4,0,0,0,141.337,77.372Z" transform="translate(-129.201 -73.887)" fill="#565656"/>
  <path id="Path_19" data-name="Path 19" d="M181.5,136.9a.4.4,0,0,0,0-.57,2.82,2.82,0,0,0-3.991,0,.4.4,0,1,0,.57.57,2.013,2.013,0,0,1,2.851,0A.4.4,0,0,0,181.5,136.9Z" transform="translate(-170.503 -130.842)" fill="#565656"/>
  <path id="Path_20" data-name="Path 20" d="M301.4,345.5a.4.4,0,0,0-.4.4v.807a.4.4,0,1,0,.807,0V345.9A.4.4,0,0,0,301.4,345.5Z" transform="translate(-290.263 -332.655)" fill="#565656"/>
  <path id="Path_21" data-name="Path 21" d="M361.4,345.5a.4.4,0,0,0-.4.4v.807a.4.4,0,1,0,.807,0V345.9A.4.4,0,0,0,361.4,345.5Z" transform="translate(-348.123 -332.655)" fill="#565656"/>
  <path id="Path_22" data-name="Path 22" d="M421.4,345.5a.4.4,0,0,0-.4.4v.807a.4.4,0,1,0,.807,0V345.9A.4.4,0,0,0,421.4,345.5Z" transform="translate(-405.447 -332.655)" fill="#565656"/>
</svg>
