<svg id="armchair" xmlns="http://www.w3.org/2000/svg" width="60" height="60" viewBox="0 0 60 60">
  <g id="Group_5" data-name="Group 5">
    <path id="Path_23" data-name="Path 23" d="M59.753,22.931a8.361,8.361,0,0,0-6.3-6.077c-.25-.052-.5-.043-.751-.073A21.534,21.534,0,0,0,31.669,0H28.336A21.538,21.538,0,0,0,7.3,16.781,8.217,8.217,0,0,0,0,25a8.343,8.343,0,0,0,3.334,6.632V46.667a6.644,6.644,0,0,0,3.334,5.74V55a5,5,0,0,0,10,0V53.333H43.337V55a5,5,0,0,0,10,0V52.406a6.644,6.644,0,0,0,3.334-5.74V31.634A8.335,8.335,0,0,0,59.753,22.931ZM28.333,3.333h3.333a18.212,18.212,0,0,1,17.67,13.705,8.19,8.19,0,0,0-6,7.961v8.333H16.667V25.356a8.661,8.661,0,0,0-6-8.327A18.214,18.214,0,0,1,28.333,3.333Zm18.333,35A1.668,1.668,0,0,1,45,40H15a1.667,1.667,0,1,1,0-3.333H45A1.668,1.668,0,0,1,46.667,38.333ZM13.333,55A1.667,1.667,0,1,1,10,55V53.333h3.333ZM50,55a1.667,1.667,0,0,1-3.333,0V53.333H50Zm4.162-25.7a1.666,1.666,0,0,0-.828,1.44V46.667A3.338,3.338,0,0,1,50,50H10a3.338,3.338,0,0,1-3.333-3.333V30.742a1.67,1.67,0,0,0-.828-1.44A4.944,4.944,0,0,1,3.333,25a5,5,0,0,1,5.851-4.93,5.242,5.242,0,0,1,4.149,5.286V33.64A4.988,4.988,0,0,0,15,43.333H45a4.988,4.988,0,0,0,1.667-9.693V25a5,5,0,1,1,7.5,4.3Z" transform="translate(0)" fill="#ff6e00"/>
  </g>
</svg>
