<svg xmlns="http://www.w3.org/2000/svg" width="66" height="101" viewBox="0 0 66 101">
  <path id="chair" d="M152.221,41.721,149.465,24.91a1.482,1.482,0,0,0-2.926.477l2.458,15A137.5,137.5,0,0,0,109.9,38.5a1.478,1.478,0,1,0,.27,2.944,134.457,134.457,0,0,1,38.553,1.895,4.5,4.5,0,0,1,3.607,4.409v4.664a4.512,4.512,0,0,1-4.513,4.5H96.774a4.512,4.512,0,0,1-4.513-4.5V47.842a4.5,4.5,0,0,1,3.687-4.426c2.633-.487,5.313-.914,7.968-1.268a1.478,1.478,0,1,0-.393-2.93c-2.7.36-5.434.795-8.115,1.291h0l4.169-25.556a14.268,14.268,0,0,1,14.149-12H130.68a14.269,14.269,0,0,1,14.147,11.988l.685,4.18a1.482,1.482,0,0,0,2.926-.477l-.685-4.18A17.285,17.285,0,0,0,130.68,0H113.725A17.285,17.285,0,0,0,96.649,14.48L92.166,41.968a7.449,7.449,0,0,0-2.87,5.874v4.572a7.476,7.476,0,0,0,7.478,7.456h1.12l-5.78,37.982A2.74,2.74,0,0,0,94.829,101H96.3a2.728,2.728,0,0,0,2.629-1.95L108.136,68.5l3.38-2.088h21.561l3.38,2.088,1.494,4.958a1.482,1.482,0,0,0,2.839-.85l-3.838-12.737H143.7l5.809,38.174h-1.054l-5.847-19.4a1.482,1.482,0,0,0-2.839.851l5.894,19.56a2.728,2.728,0,0,0,2.629,1.95h1.472a2.74,2.74,0,0,0,2.714-3.148L146.7,59.87h1.12a7.476,7.476,0,0,0,7.478-7.456V47.75a7.469,7.469,0,0,0-3.075-6.029ZM96.138,98.044H95.084l5.809-38.174h6.747Zm39.032-33.817-.562-.347a2.841,2.841,0,0,0-1.494-.424H111.479a2.843,2.843,0,0,0-1.495.424l-.562.347,1.313-4.357h23.121Z" transform="translate(-89.296 0)"/>
</svg>
