<svg xmlns="http://www.w3.org/2000/svg" width="40.137" height="60.378" viewBox="0 0 40.137 60.378">
  <path id="coffee" d="M124.189,11.484h-1.553V5.873A1.769,1.769,0,0,0,120.866,4.1H106.253V1.769A1.769,1.769,0,0,0,104.484,0H95.77A1.769,1.769,0,0,0,94,1.769V4.1h-3.09a1.769,1.769,0,0,0-1.769,1.769v5.611H87.589a1.769,1.769,0,0,0-1.769,1.769v8.065a1.769,1.769,0,0,0,1.769,1.769h.118l2.977,35.67a1.769,1.769,0,0,0,1.763,1.622h26.885a1.769,1.769,0,0,0,1.763-1.622l2.977-35.67h.118a1.769,1.769,0,0,0,1.769-1.769V13.253a1.769,1.769,0,0,0-1.769-1.769ZM89.358,19.549V15.022H122.42v4.527ZM92.68,7.642h3.09a1.769,1.769,0,0,0,1.769-1.769V3.538h5.176V5.873a1.769,1.769,0,0,0,1.769,1.769H119.1v3.842H92.68Zm25.831,39.525H93.266l-1.2-14.406h27.649ZM94.074,56.841,93.562,50.7h24.654l-.512,6.136Zm25.935-27.618H91.769l-.512-6.136H120.52Z" transform="translate(-85.82)" fill="#fff"/>
</svg>
