<svg xmlns="http://www.w3.org/2000/svg" width="16.446" height="14.39" viewBox="0 0 16.446 14.39">
  <g id="coffee-cup" transform="translate(0)">
    <g id="Group_12" data-name="Group 12" transform="translate(2.055 5.482)">
      <g id="Group_11" data-name="Group 11" transform="translate(0 0)">
        <path id="Path_42" data-name="Path 42" d="M74.61,202.654H65.016a1.029,1.029,0,0,0-1.028,1.028v.685a6.494,6.494,0,0,0,3.524,5.787.343.343,0,1,0,.315-.609,5.81,5.81,0,0,1-3.154-5.178v-.685a.343.343,0,0,1,.343-.343H74.61a.343.343,0,0,1,.343.343v.685a5.808,5.808,0,0,1-3.154,5.177.343.343,0,0,0,.158.648.338.338,0,0,0,.157-.038,6.491,6.491,0,0,0,3.525-5.786v-.685A1.029,1.029,0,0,0,74.61,202.654Z" transform="translate(-63.988 -202.654)" fill="#565656"/>
      </g>
    </g>
    <g id="Group_14" data-name="Group 14" transform="translate(0 12.334)">
      <g id="Group_13" data-name="Group 13">
        <path id="Path_43" data-name="Path 43" d="M15.735,416.178a.343.343,0,0,0-.317-.212H.343a.343.343,0,0,0-.243.585l.768.769a2.384,2.384,0,0,0,1.7.7H13.2a2.388,2.388,0,0,0,1.7-.7l.768-.769A.342.342,0,0,0,15.735,416.178Zm-1.327.658a1.7,1.7,0,0,1-1.212.5H2.564a1.7,1.7,0,0,1-1.212-.5l-.184-.184H14.592Z" transform="translate(0 -415.966)" fill="#565656"/>
      </g>
    </g>
    <g id="Group_16" data-name="Group 16" transform="translate(11.406 6.851)">
      <g id="Group_15" data-name="Group 15">
        <path id="Path_44" data-name="Path 44" d="M359.47,245.521c-.923-.593-2.4.051-2.563.125a.343.343,0,0,0,.284.624c.33-.15,1.39-.506,1.908-.172a.974.974,0,0,1,.348.888c0,1.372-2.767,2.2-3.835,2.405l-.243.048a.342.342,0,0,0,.066.678.318.318,0,0,0,.066-.007l.241-.047c.18-.034,4.391-.86,4.391-3.078A1.616,1.616,0,0,0,359.47,245.521Z" transform="translate(-355.093 -245.272)" fill="#565656"/>
      </g>
    </g>
    <g id="Group_18" data-name="Group 18" transform="translate(9.594)">
      <g id="Group_17" data-name="Group 17">
        <path id="Path_45" data-name="Path 45" d="M299.62,34.612a2.053,2.053,0,0,0,0-2.483.343.343,0,0,0-.535.428,1.382,1.382,0,0,1,0,1.628,2.051,2.051,0,0,0,0,2.483.343.343,0,1,0,.535-.428A1.38,1.38,0,0,1,299.62,34.612Z" transform="translate(-298.666 -32.001)" fill="#565656"/>
      </g>
    </g>
    <g id="Group_20" data-name="Group 20" transform="translate(7.536 0)">
      <g id="Group_19" data-name="Group 19" transform="translate(0 0)">
        <path id="Path_46" data-name="Path 46" d="M235.551,34.621a2.051,2.051,0,0,0,0-2.483.343.343,0,0,0-.535.428,1.38,1.38,0,0,1,0,1.628,2.053,2.053,0,0,0,0,2.483.343.343,0,1,0,.535-.428A1.382,1.382,0,0,1,235.551,34.621Z" transform="translate(-234.597 -32.009)" fill="#565656"/>
      </g>
    </g>
    <g id="Group_22" data-name="Group 22" transform="translate(5.482 0.001)">
      <g id="Group_21" data-name="Group 21" transform="translate(0 0)">
        <path id="Path_47" data-name="Path 47" d="M171.62,34.633a2.053,2.053,0,0,0,0-2.483.343.343,0,0,0-.535.428,1.382,1.382,0,0,1,0,1.628,2.051,2.051,0,0,0,0,2.483.343.343,0,1,0,.535-.428A1.38,1.38,0,0,1,171.62,34.633Z" transform="translate(-170.666 -32.022)" fill="#565656"/>
      </g>
    </g>
  </g>
</svg>
