<svg id="office-desk" xmlns="http://www.w3.org/2000/svg" width="88.785" height="65.954" viewBox="0 0 88.785 65.954">
  <path id="Path_24" data-name="Path 24" d="M44.745,13.537H40.978a1.268,1.268,0,1,1,0-2.537h3.767a1.268,1.268,0,1,1,0,2.537Z" transform="translate(8.12 -11)" fill="#ff6e00"/>
  <path id="Path_25" data-name="Path 25" d="M88.248,22.415H4.537A2.537,2.537,0,0,1,2,19.878V13.537A2.537,2.537,0,0,1,4.537,11H29.663a1.268,1.268,0,1,1,0,2.537H4.537v6.342H88.248V13.537h-24.5a1.268,1.268,0,1,1,0-2.537h24.5a2.537,2.537,0,0,1,2.537,2.537v6.342A2.537,2.537,0,0,1,88.248,22.415Z" transform="translate(-2 -11)" fill="#ff6e00"/>
  <path id="Path_26" data-name="Path 26" d="M34.757,13.537H31.078a1.268,1.268,0,1,1,0-2.537h3.678a1.268,1.268,0,1,1,0,2.537Z" transform="translate(5.463 -11)" fill="#ff6e00"/>
  <path id="Path_27" data-name="Path 27" d="M13.878,75.076H6.268A1.268,1.268,0,0,1,5,73.808V19.268A1.268,1.268,0,0,1,6.268,18h7.61a1.268,1.268,0,0,1,1.268,1.268V73.808A1.268,1.268,0,0,1,13.878,75.076ZM7.537,72.539H12.61v-52H7.537Z" transform="translate(-1.195 -9.122)" fill="#ff6e00"/>
  <path id="Path_28" data-name="Path 28" d="M69.878,75.076h-7.61A1.268,1.268,0,0,1,61,73.808V19.268A1.268,1.268,0,0,1,62.268,18h7.61a1.268,1.268,0,0,1,1.268,1.268V73.808A1.268,1.268,0,0,1,69.878,75.076Zm-6.342-2.537H68.61v-52H63.537Z" transform="translate(13.833 -9.122)" fill="#ff6e00"/>
  <path id="Path_29" data-name="Path 29" d="M43.977,39.562H12.268A1.268,1.268,0,0,1,11,38.294V19.268A1.268,1.268,0,0,1,12.268,18H43.977a1.268,1.268,0,0,1,1.268,1.268V38.294A1.268,1.268,0,0,1,43.977,39.562Zm-30.44-2.537H42.709V20.537H13.537Z" transform="translate(0.415 -9.122)" fill="#ff6e00"/>
  <path id="Path_30" data-name="Path 30" d="M68.977,39.562H37.268A1.268,1.268,0,0,1,36,38.294V19.268A1.268,1.268,0,0,1,37.268,18H68.977a1.268,1.268,0,0,1,1.268,1.268V38.294A1.268,1.268,0,0,1,68.977,39.562Zm-30.44-2.537H67.709V20.537H38.537Z" transform="translate(7.124 -9.122)" fill="#ff6e00"/>
  <path id="Path_31" data-name="Path 31" d="M52.073,28.037H48.268a1.268,1.268,0,0,1,0-2.537h3.805a1.268,1.268,0,0,1,0,2.537Z" transform="translate(10.076 -7.109)" fill="#ff6e00"/>
  <path id="Path_32" data-name="Path 32" d="M27.073,28.037H23.268a1.268,1.268,0,1,1,0-2.537h3.805a1.268,1.268,0,1,1,0,2.537Z" transform="translate(3.367 -7.109)" fill="#ff6e00"/>
</svg>
