<svg id="Pattern_01" data-name="Pattern 01" xmlns="http://www.w3.org/2000/svg" xmlns:xlink="http://www.w3.org/1999/xlink" width="174" height="140" viewBox="0 0 174 140">
  <defs>
    <clipPath id="clip-path">
      <rect width="174" height="140" fill="none"/>
    </clipPath>
  </defs>
  <g id="Repeat_Grid_1" data-name="Repeat Grid 1" clip-path="url(#clip-path)">
    <g transform="translate(-3398 -5173)">
      <g id="Ellipse_1" data-name="Ellipse 1" transform="translate(3398 5173)" fill="#ff6e00" stroke="#e8eaee" stroke-width="1">
        <circle cx="2.5" cy="2.5" r="2.5" stroke="none"/>
        <circle cx="2.5" cy="2.5" r="2" fill="none"/>
      </g>
    </g>
    <g transform="translate(-3385 -5173)">
      <g id="Ellipse_1-2" data-name="Ellipse 1" transform="translate(3398 5173)" fill="#ff6e00" stroke="#e8eaee" stroke-width="1">
        <circle cx="2.5" cy="2.5" r="2.5" stroke="none"/>
        <circle cx="2.5" cy="2.5" r="2" fill="none"/>
      </g>
    </g>
    <g transform="translate(-3372 -5173)">
      <g id="Ellipse_1-3" data-name="Ellipse 1" transform="translate(3398 5173)" fill="#ff6e00" stroke="#e8eaee" stroke-width="1">
        <circle cx="2.5" cy="2.5" r="2.5" stroke="none"/>
        <circle cx="2.5" cy="2.5" r="2" fill="none"/>
      </g>
    </g>
    <g transform="translate(-3359 -5173)">
      <g id="Ellipse_1-4" data-name="Ellipse 1" transform="translate(3398 5173)" fill="#ff6e00" stroke="#e8eaee" stroke-width="1">
        <circle cx="2.5" cy="2.5" r="2.5" stroke="none"/>
        <circle cx="2.5" cy="2.5" r="2" fill="none"/>
      </g>
    </g>
    <g transform="translate(-3346 -5173)">
      <g id="Ellipse_1-5" data-name="Ellipse 1" transform="translate(3398 5173)" fill="#ff6e00" stroke="#e8eaee" stroke-width="1">
        <circle cx="2.5" cy="2.5" r="2.5" stroke="none"/>
        <circle cx="2.5" cy="2.5" r="2" fill="none"/>
      </g>
    </g>
    <g transform="translate(-3333 -5173)">
      <g id="Ellipse_1-6" data-name="Ellipse 1" transform="translate(3398 5173)" fill="#ff6e00" stroke="#e8eaee" stroke-width="1">
        <circle cx="2.5" cy="2.5" r="2.5" stroke="none"/>
        <circle cx="2.5" cy="2.5" r="2" fill="none"/>
      </g>
    </g>
    <g transform="translate(-3320 -5173)">
      <g id="Ellipse_1-7" data-name="Ellipse 1" transform="translate(3398 5173)" fill="#ff6e00" stroke="#e8eaee" stroke-width="1">
        <circle cx="2.5" cy="2.5" r="2.5" stroke="none"/>
        <circle cx="2.5" cy="2.5" r="2" fill="none"/>
      </g>
    </g>
    <g transform="translate(-3307 -5173)">
      <g id="Ellipse_1-8" data-name="Ellipse 1" transform="translate(3398 5173)" fill="#ff6e00" stroke="#e8eaee" stroke-width="1">
        <circle cx="2.5" cy="2.5" r="2.5" stroke="none"/>
        <circle cx="2.5" cy="2.5" r="2" fill="none"/>
      </g>
    </g>
    <g transform="translate(-3294 -5173)">
      <g id="Ellipse_1-9" data-name="Ellipse 1" transform="translate(3398 5173)" fill="#ff6e00" stroke="#e8eaee" stroke-width="1">
        <circle cx="2.5" cy="2.5" r="2.5" stroke="none"/>
        <circle cx="2.5" cy="2.5" r="2" fill="none"/>
      </g>
    </g>
    <g transform="translate(-3281 -5173)">
      <g id="Ellipse_1-10" data-name="Ellipse 1" transform="translate(3398 5173)" fill="#ff6e00" stroke="#e8eaee" stroke-width="1">
        <circle cx="2.5" cy="2.5" r="2.5" stroke="none"/>
        <circle cx="2.5" cy="2.5" r="2" fill="none"/>
      </g>
    </g>
    <g transform="translate(-3268 -5173)">
      <g id="Ellipse_1-11" data-name="Ellipse 1" transform="translate(3398 5173)" fill="#ff6e00" stroke="#e8eaee" stroke-width="1">
        <circle cx="2.5" cy="2.5" r="2.5" stroke="none"/>
        <circle cx="2.5" cy="2.5" r="2" fill="none"/>
      </g>
    </g>
    <g transform="translate(-3255 -5173)">
      <g id="Ellipse_1-12" data-name="Ellipse 1" transform="translate(3398 5173)" fill="#ff6e00" stroke="#e8eaee" stroke-width="1">
        <circle cx="2.5" cy="2.5" r="2.5" stroke="none"/>
        <circle cx="2.5" cy="2.5" r="2" fill="none"/>
      </g>
    </g>
    <g transform="translate(-3242 -5173)">
      <g id="Ellipse_1-13" data-name="Ellipse 1" transform="translate(3398 5173)" fill="#ff6e00" stroke="#e8eaee" stroke-width="1">
        <circle cx="2.5" cy="2.5" r="2.5" stroke="none"/>
        <circle cx="2.5" cy="2.5" r="2" fill="none"/>
      </g>
    </g>
    <g transform="translate(-3229 -5173)">
      <g id="Ellipse_1-14" data-name="Ellipse 1" transform="translate(3398 5173)" fill="#ff6e00" stroke="#e8eaee" stroke-width="1">
        <circle cx="2.5" cy="2.5" r="2.5" stroke="none"/>
        <circle cx="2.5" cy="2.5" r="2" fill="none"/>
      </g>
    </g>
    <g transform="translate(-3398 -5156)">
      <g id="Ellipse_1-15" data-name="Ellipse 1" transform="translate(3398 5173)" fill="#ff6e00" stroke="#e8eaee" stroke-width="1">
        <circle cx="2.5" cy="2.5" r="2.5" stroke="none"/>
        <circle cx="2.5" cy="2.5" r="2" fill="none"/>
      </g>
    </g>
    <g transform="translate(-3385 -5156)">
      <g id="Ellipse_1-16" data-name="Ellipse 1" transform="translate(3398 5173)" fill="#ff6e00" stroke="#e8eaee" stroke-width="1">
        <circle cx="2.5" cy="2.5" r="2.5" stroke="none"/>
        <circle cx="2.5" cy="2.5" r="2" fill="none"/>
      </g>
    </g>
    <g transform="translate(-3372 -5156)">
      <g id="Ellipse_1-17" data-name="Ellipse 1" transform="translate(3398 5173)" fill="#ff6e00" stroke="#e8eaee" stroke-width="1">
        <circle cx="2.5" cy="2.5" r="2.5" stroke="none"/>
        <circle cx="2.5" cy="2.5" r="2" fill="none"/>
      </g>
    </g>
    <g transform="translate(-3359 -5156)">
      <g id="Ellipse_1-18" data-name="Ellipse 1" transform="translate(3398 5173)" fill="#ff6e00" stroke="#e8eaee" stroke-width="1">
        <circle cx="2.5" cy="2.5" r="2.5" stroke="none"/>
        <circle cx="2.5" cy="2.5" r="2" fill="none"/>
      </g>
    </g>
    <g transform="translate(-3346 -5156)">
      <g id="Ellipse_1-19" data-name="Ellipse 1" transform="translate(3398 5173)" fill="#ff6e00" stroke="#e8eaee" stroke-width="1">
        <circle cx="2.5" cy="2.5" r="2.5" stroke="none"/>
        <circle cx="2.5" cy="2.5" r="2" fill="none"/>
      </g>
    </g>
    <g transform="translate(-3333 -5156)">
      <g id="Ellipse_1-20" data-name="Ellipse 1" transform="translate(3398 5173)" fill="#ff6e00" stroke="#e8eaee" stroke-width="1">
        <circle cx="2.5" cy="2.5" r="2.5" stroke="none"/>
        <circle cx="2.5" cy="2.5" r="2" fill="none"/>
      </g>
    </g>
    <g transform="translate(-3320 -5156)">
      <g id="Ellipse_1-21" data-name="Ellipse 1" transform="translate(3398 5173)" fill="#ff6e00" stroke="#e8eaee" stroke-width="1">
        <circle cx="2.5" cy="2.5" r="2.5" stroke="none"/>
        <circle cx="2.5" cy="2.5" r="2" fill="none"/>
      </g>
    </g>
    <g transform="translate(-3307 -5156)">
      <g id="Ellipse_1-22" data-name="Ellipse 1" transform="translate(3398 5173)" fill="#ff6e00" stroke="#e8eaee" stroke-width="1">
        <circle cx="2.5" cy="2.5" r="2.5" stroke="none"/>
        <circle cx="2.5" cy="2.5" r="2" fill="none"/>
      </g>
    </g>
    <g transform="translate(-3294 -5156)">
      <g id="Ellipse_1-23" data-name="Ellipse 1" transform="translate(3398 5173)" fill="#ff6e00" stroke="#e8eaee" stroke-width="1">
        <circle cx="2.5" cy="2.5" r="2.5" stroke="none"/>
        <circle cx="2.5" cy="2.5" r="2" fill="none"/>
      </g>
    </g>
    <g transform="translate(-3281 -5156)">
      <g id="Ellipse_1-24" data-name="Ellipse 1" transform="translate(3398 5173)" fill="#ff6e00" stroke="#e8eaee" stroke-width="1">
        <circle cx="2.5" cy="2.5" r="2.5" stroke="none"/>
        <circle cx="2.5" cy="2.5" r="2" fill="none"/>
      </g>
    </g>
    <g transform="translate(-3268 -5156)">
      <g id="Ellipse_1-25" data-name="Ellipse 1" transform="translate(3398 5173)" fill="#ff6e00" stroke="#e8eaee" stroke-width="1">
        <circle cx="2.5" cy="2.5" r="2.5" stroke="none"/>
        <circle cx="2.5" cy="2.5" r="2" fill="none"/>
      </g>
    </g>
    <g transform="translate(-3255 -5156)">
      <g id="Ellipse_1-26" data-name="Ellipse 1" transform="translate(3398 5173)" fill="#ff6e00" stroke="#e8eaee" stroke-width="1">
        <circle cx="2.5" cy="2.5" r="2.5" stroke="none"/>
        <circle cx="2.5" cy="2.5" r="2" fill="none"/>
      </g>
    </g>
    <g transform="translate(-3242 -5156)">
      <g id="Ellipse_1-27" data-name="Ellipse 1" transform="translate(3398 5173)" fill="#ff6e00" stroke="#e8eaee" stroke-width="1">
        <circle cx="2.5" cy="2.5" r="2.5" stroke="none"/>
        <circle cx="2.5" cy="2.5" r="2" fill="none"/>
      </g>
    </g>
    <g transform="translate(-3229 -5156)">
      <g id="Ellipse_1-28" data-name="Ellipse 1" transform="translate(3398 5173)" fill="#ff6e00" stroke="#e8eaee" stroke-width="1">
        <circle cx="2.5" cy="2.5" r="2.5" stroke="none"/>
        <circle cx="2.5" cy="2.5" r="2" fill="none"/>
      </g>
    </g>
    <g transform="translate(-3398 -5139)">
      <g id="Ellipse_1-29" data-name="Ellipse 1" transform="translate(3398 5173)" fill="#ff6e00" stroke="#e8eaee" stroke-width="1">
        <circle cx="2.5" cy="2.5" r="2.5" stroke="none"/>
        <circle cx="2.5" cy="2.5" r="2" fill="none"/>
      </g>
    </g>
    <g transform="translate(-3385 -5139)">
      <g id="Ellipse_1-30" data-name="Ellipse 1" transform="translate(3398 5173)" fill="#ff6e00" stroke="#e8eaee" stroke-width="1">
        <circle cx="2.5" cy="2.5" r="2.5" stroke="none"/>
        <circle cx="2.5" cy="2.5" r="2" fill="none"/>
      </g>
    </g>
    <g transform="translate(-3372 -5139)">
      <g id="Ellipse_1-31" data-name="Ellipse 1" transform="translate(3398 5173)" fill="#ff6e00" stroke="#e8eaee" stroke-width="1">
        <circle cx="2.5" cy="2.5" r="2.5" stroke="none"/>
        <circle cx="2.5" cy="2.5" r="2" fill="none"/>
      </g>
    </g>
    <g transform="translate(-3359 -5139)">
      <g id="Ellipse_1-32" data-name="Ellipse 1" transform="translate(3398 5173)" fill="#ff6e00" stroke="#e8eaee" stroke-width="1">
        <circle cx="2.5" cy="2.5" r="2.5" stroke="none"/>
        <circle cx="2.5" cy="2.5" r="2" fill="none"/>
      </g>
    </g>
    <g transform="translate(-3346 -5139)">
      <g id="Ellipse_1-33" data-name="Ellipse 1" transform="translate(3398 5173)" fill="#ff6e00" stroke="#e8eaee" stroke-width="1">
        <circle cx="2.5" cy="2.5" r="2.5" stroke="none"/>
        <circle cx="2.5" cy="2.5" r="2" fill="none"/>
      </g>
    </g>
    <g transform="translate(-3333 -5139)">
      <g id="Ellipse_1-34" data-name="Ellipse 1" transform="translate(3398 5173)" fill="#ff6e00" stroke="#e8eaee" stroke-width="1">
        <circle cx="2.5" cy="2.5" r="2.5" stroke="none"/>
        <circle cx="2.5" cy="2.5" r="2" fill="none"/>
      </g>
    </g>
    <g transform="translate(-3320 -5139)">
      <g id="Ellipse_1-35" data-name="Ellipse 1" transform="translate(3398 5173)" fill="#ff6e00" stroke="#e8eaee" stroke-width="1">
        <circle cx="2.5" cy="2.5" r="2.5" stroke="none"/>
        <circle cx="2.5" cy="2.5" r="2" fill="none"/>
      </g>
    </g>
    <g transform="translate(-3307 -5139)">
      <g id="Ellipse_1-36" data-name="Ellipse 1" transform="translate(3398 5173)" fill="#ff6e00" stroke="#e8eaee" stroke-width="1">
        <circle cx="2.5" cy="2.5" r="2.5" stroke="none"/>
        <circle cx="2.5" cy="2.5" r="2" fill="none"/>
      </g>
    </g>
    <g transform="translate(-3294 -5139)">
      <g id="Ellipse_1-37" data-name="Ellipse 1" transform="translate(3398 5173)" fill="#ff6e00" stroke="#e8eaee" stroke-width="1">
        <circle cx="2.5" cy="2.5" r="2.5" stroke="none"/>
        <circle cx="2.5" cy="2.5" r="2" fill="none"/>
      </g>
    </g>
    <g transform="translate(-3281 -5139)">
      <g id="Ellipse_1-38" data-name="Ellipse 1" transform="translate(3398 5173)" fill="#ff6e00" stroke="#e8eaee" stroke-width="1">
        <circle cx="2.5" cy="2.5" r="2.5" stroke="none"/>
        <circle cx="2.5" cy="2.5" r="2" fill="none"/>
      </g>
    </g>
    <g transform="translate(-3268 -5139)">
      <g id="Ellipse_1-39" data-name="Ellipse 1" transform="translate(3398 5173)" fill="#ff6e00" stroke="#e8eaee" stroke-width="1">
        <circle cx="2.5" cy="2.5" r="2.5" stroke="none"/>
        <circle cx="2.5" cy="2.5" r="2" fill="none"/>
      </g>
    </g>
    <g transform="translate(-3255 -5139)">
      <g id="Ellipse_1-40" data-name="Ellipse 1" transform="translate(3398 5173)" fill="#ff6e00" stroke="#e8eaee" stroke-width="1">
        <circle cx="2.5" cy="2.5" r="2.5" stroke="none"/>
        <circle cx="2.5" cy="2.5" r="2" fill="none"/>
      </g>
    </g>
    <g transform="translate(-3242 -5139)">
      <g id="Ellipse_1-41" data-name="Ellipse 1" transform="translate(3398 5173)" fill="#ff6e00" stroke="#e8eaee" stroke-width="1">
        <circle cx="2.5" cy="2.5" r="2.5" stroke="none"/>
        <circle cx="2.5" cy="2.5" r="2" fill="none"/>
      </g>
    </g>
    <g transform="translate(-3229 -5139)">
      <g id="Ellipse_1-42" data-name="Ellipse 1" transform="translate(3398 5173)" fill="#ff6e00" stroke="#e8eaee" stroke-width="1">
        <circle cx="2.5" cy="2.5" r="2.5" stroke="none"/>
        <circle cx="2.5" cy="2.5" r="2" fill="none"/>
      </g>
    </g>
    <g transform="translate(-3398 -5122)">
      <g id="Ellipse_1-43" data-name="Ellipse 1" transform="translate(3398 5173)" fill="#ff6e00" stroke="#e8eaee" stroke-width="1">
        <circle cx="2.5" cy="2.5" r="2.5" stroke="none"/>
        <circle cx="2.5" cy="2.5" r="2" fill="none"/>
      </g>
    </g>
    <g transform="translate(-3385 -5122)">
      <g id="Ellipse_1-44" data-name="Ellipse 1" transform="translate(3398 5173)" fill="#ff6e00" stroke="#e8eaee" stroke-width="1">
        <circle cx="2.5" cy="2.5" r="2.5" stroke="none"/>
        <circle cx="2.5" cy="2.5" r="2" fill="none"/>
      </g>
    </g>
    <g transform="translate(-3372 -5122)">
      <g id="Ellipse_1-45" data-name="Ellipse 1" transform="translate(3398 5173)" fill="#ff6e00" stroke="#e8eaee" stroke-width="1">
        <circle cx="2.5" cy="2.5" r="2.5" stroke="none"/>
        <circle cx="2.5" cy="2.5" r="2" fill="none"/>
      </g>
    </g>
    <g transform="translate(-3359 -5122)">
      <g id="Ellipse_1-46" data-name="Ellipse 1" transform="translate(3398 5173)" fill="#ff6e00" stroke="#e8eaee" stroke-width="1">
        <circle cx="2.5" cy="2.5" r="2.5" stroke="none"/>
        <circle cx="2.5" cy="2.5" r="2" fill="none"/>
      </g>
    </g>
    <g transform="translate(-3346 -5122)">
      <g id="Ellipse_1-47" data-name="Ellipse 1" transform="translate(3398 5173)" fill="#ff6e00" stroke="#e8eaee" stroke-width="1">
        <circle cx="2.5" cy="2.5" r="2.5" stroke="none"/>
        <circle cx="2.5" cy="2.5" r="2" fill="none"/>
      </g>
    </g>
    <g transform="translate(-3333 -5122)">
      <g id="Ellipse_1-48" data-name="Ellipse 1" transform="translate(3398 5173)" fill="#ff6e00" stroke="#e8eaee" stroke-width="1">
        <circle cx="2.5" cy="2.5" r="2.5" stroke="none"/>
        <circle cx="2.5" cy="2.5" r="2" fill="none"/>
      </g>
    </g>
    <g transform="translate(-3320 -5122)">
      <g id="Ellipse_1-49" data-name="Ellipse 1" transform="translate(3398 5173)" fill="#ff6e00" stroke="#e8eaee" stroke-width="1">
        <circle cx="2.5" cy="2.5" r="2.5" stroke="none"/>
        <circle cx="2.5" cy="2.5" r="2" fill="none"/>
      </g>
    </g>
    <g transform="translate(-3307 -5122)">
      <g id="Ellipse_1-50" data-name="Ellipse 1" transform="translate(3398 5173)" fill="#ff6e00" stroke="#e8eaee" stroke-width="1">
        <circle cx="2.5" cy="2.5" r="2.5" stroke="none"/>
        <circle cx="2.5" cy="2.5" r="2" fill="none"/>
      </g>
    </g>
    <g transform="translate(-3294 -5122)">
      <g id="Ellipse_1-51" data-name="Ellipse 1" transform="translate(3398 5173)" fill="#ff6e00" stroke="#e8eaee" stroke-width="1">
        <circle cx="2.5" cy="2.5" r="2.5" stroke="none"/>
        <circle cx="2.5" cy="2.5" r="2" fill="none"/>
      </g>
    </g>
    <g transform="translate(-3281 -5122)">
      <g id="Ellipse_1-52" data-name="Ellipse 1" transform="translate(3398 5173)" fill="#ff6e00" stroke="#e8eaee" stroke-width="1">
        <circle cx="2.5" cy="2.5" r="2.5" stroke="none"/>
        <circle cx="2.5" cy="2.5" r="2" fill="none"/>
      </g>
    </g>
    <g transform="translate(-3268 -5122)">
      <g id="Ellipse_1-53" data-name="Ellipse 1" transform="translate(3398 5173)" fill="#ff6e00" stroke="#e8eaee" stroke-width="1">
        <circle cx="2.5" cy="2.5" r="2.5" stroke="none"/>
        <circle cx="2.5" cy="2.5" r="2" fill="none"/>
      </g>
    </g>
    <g transform="translate(-3255 -5122)">
      <g id="Ellipse_1-54" data-name="Ellipse 1" transform="translate(3398 5173)" fill="#ff6e00" stroke="#e8eaee" stroke-width="1">
        <circle cx="2.5" cy="2.5" r="2.5" stroke="none"/>
        <circle cx="2.5" cy="2.5" r="2" fill="none"/>
      </g>
    </g>
    <g transform="translate(-3242 -5122)">
      <g id="Ellipse_1-55" data-name="Ellipse 1" transform="translate(3398 5173)" fill="#ff6e00" stroke="#e8eaee" stroke-width="1">
        <circle cx="2.5" cy="2.5" r="2.5" stroke="none"/>
        <circle cx="2.5" cy="2.5" r="2" fill="none"/>
      </g>
    </g>
    <g transform="translate(-3229 -5122)">
      <g id="Ellipse_1-56" data-name="Ellipse 1" transform="translate(3398 5173)" fill="#ff6e00" stroke="#e8eaee" stroke-width="1">
        <circle cx="2.5" cy="2.5" r="2.5" stroke="none"/>
        <circle cx="2.5" cy="2.5" r="2" fill="none"/>
      </g>
    </g>
    <g transform="translate(-3398 -5105)">
      <g id="Ellipse_1-57" data-name="Ellipse 1" transform="translate(3398 5173)" fill="#ff6e00" stroke="#e8eaee" stroke-width="1">
        <circle cx="2.5" cy="2.5" r="2.5" stroke="none"/>
        <circle cx="2.5" cy="2.5" r="2" fill="none"/>
      </g>
    </g>
    <g transform="translate(-3385 -5105)">
      <g id="Ellipse_1-58" data-name="Ellipse 1" transform="translate(3398 5173)" fill="#ff6e00" stroke="#e8eaee" stroke-width="1">
        <circle cx="2.5" cy="2.5" r="2.5" stroke="none"/>
        <circle cx="2.5" cy="2.5" r="2" fill="none"/>
      </g>
    </g>
    <g transform="translate(-3372 -5105)">
      <g id="Ellipse_1-59" data-name="Ellipse 1" transform="translate(3398 5173)" fill="#ff6e00" stroke="#e8eaee" stroke-width="1">
        <circle cx="2.5" cy="2.5" r="2.5" stroke="none"/>
        <circle cx="2.5" cy="2.5" r="2" fill="none"/>
      </g>
    </g>
    <g transform="translate(-3359 -5105)">
      <g id="Ellipse_1-60" data-name="Ellipse 1" transform="translate(3398 5173)" fill="#ff6e00" stroke="#e8eaee" stroke-width="1">
        <circle cx="2.5" cy="2.5" r="2.5" stroke="none"/>
        <circle cx="2.5" cy="2.5" r="2" fill="none"/>
      </g>
    </g>
    <g transform="translate(-3346 -5105)">
      <g id="Ellipse_1-61" data-name="Ellipse 1" transform="translate(3398 5173)" fill="#ff6e00" stroke="#e8eaee" stroke-width="1">
        <circle cx="2.5" cy="2.5" r="2.5" stroke="none"/>
        <circle cx="2.5" cy="2.5" r="2" fill="none"/>
      </g>
    </g>
    <g transform="translate(-3333 -5105)">
      <g id="Ellipse_1-62" data-name="Ellipse 1" transform="translate(3398 5173)" fill="#ff6e00" stroke="#e8eaee" stroke-width="1">
        <circle cx="2.5" cy="2.5" r="2.5" stroke="none"/>
        <circle cx="2.5" cy="2.5" r="2" fill="none"/>
      </g>
    </g>
    <g transform="translate(-3320 -5105)">
      <g id="Ellipse_1-63" data-name="Ellipse 1" transform="translate(3398 5173)" fill="#ff6e00" stroke="#e8eaee" stroke-width="1">
        <circle cx="2.5" cy="2.5" r="2.5" stroke="none"/>
        <circle cx="2.5" cy="2.5" r="2" fill="none"/>
      </g>
    </g>
    <g transform="translate(-3307 -5105)">
      <g id="Ellipse_1-64" data-name="Ellipse 1" transform="translate(3398 5173)" fill="#ff6e00" stroke="#e8eaee" stroke-width="1">
        <circle cx="2.5" cy="2.5" r="2.5" stroke="none"/>
        <circle cx="2.5" cy="2.5" r="2" fill="none"/>
      </g>
    </g>
    <g transform="translate(-3294 -5105)">
      <g id="Ellipse_1-65" data-name="Ellipse 1" transform="translate(3398 5173)" fill="#ff6e00" stroke="#e8eaee" stroke-width="1">
        <circle cx="2.5" cy="2.5" r="2.5" stroke="none"/>
        <circle cx="2.5" cy="2.5" r="2" fill="none"/>
      </g>
    </g>
    <g transform="translate(-3281 -5105)">
      <g id="Ellipse_1-66" data-name="Ellipse 1" transform="translate(3398 5173)" fill="#ff6e00" stroke="#e8eaee" stroke-width="1">
        <circle cx="2.5" cy="2.5" r="2.5" stroke="none"/>
        <circle cx="2.5" cy="2.5" r="2" fill="none"/>
      </g>
    </g>
    <g transform="translate(-3268 -5105)">
      <g id="Ellipse_1-67" data-name="Ellipse 1" transform="translate(3398 5173)" fill="#ff6e00" stroke="#e8eaee" stroke-width="1">
        <circle cx="2.5" cy="2.5" r="2.5" stroke="none"/>
        <circle cx="2.5" cy="2.5" r="2" fill="none"/>
      </g>
    </g>
    <g transform="translate(-3255 -5105)">
      <g id="Ellipse_1-68" data-name="Ellipse 1" transform="translate(3398 5173)" fill="#ff6e00" stroke="#e8eaee" stroke-width="1">
        <circle cx="2.5" cy="2.5" r="2.5" stroke="none"/>
        <circle cx="2.5" cy="2.5" r="2" fill="none"/>
      </g>
    </g>
    <g transform="translate(-3242 -5105)">
      <g id="Ellipse_1-69" data-name="Ellipse 1" transform="translate(3398 5173)" fill="#ff6e00" stroke="#e8eaee" stroke-width="1">
        <circle cx="2.5" cy="2.5" r="2.5" stroke="none"/>
        <circle cx="2.5" cy="2.5" r="2" fill="none"/>
      </g>
    </g>
    <g transform="translate(-3229 -5105)">
      <g id="Ellipse_1-70" data-name="Ellipse 1" transform="translate(3398 5173)" fill="#ff6e00" stroke="#e8eaee" stroke-width="1">
        <circle cx="2.5" cy="2.5" r="2.5" stroke="none"/>
        <circle cx="2.5" cy="2.5" r="2" fill="none"/>
      </g>
    </g>
    <g transform="translate(-3398 -5088)">
      <g id="Ellipse_1-71" data-name="Ellipse 1" transform="translate(3398 5173)" fill="#ff6e00" stroke="#e8eaee" stroke-width="1">
        <circle cx="2.5" cy="2.5" r="2.5" stroke="none"/>
        <circle cx="2.5" cy="2.5" r="2" fill="none"/>
      </g>
    </g>
    <g transform="translate(-3385 -5088)">
      <g id="Ellipse_1-72" data-name="Ellipse 1" transform="translate(3398 5173)" fill="#ff6e00" stroke="#e8eaee" stroke-width="1">
        <circle cx="2.5" cy="2.5" r="2.5" stroke="none"/>
        <circle cx="2.5" cy="2.5" r="2" fill="none"/>
      </g>
    </g>
    <g transform="translate(-3372 -5088)">
      <g id="Ellipse_1-73" data-name="Ellipse 1" transform="translate(3398 5173)" fill="#ff6e00" stroke="#e8eaee" stroke-width="1">
        <circle cx="2.5" cy="2.5" r="2.5" stroke="none"/>
        <circle cx="2.5" cy="2.5" r="2" fill="none"/>
      </g>
    </g>
    <g transform="translate(-3359 -5088)">
      <g id="Ellipse_1-74" data-name="Ellipse 1" transform="translate(3398 5173)" fill="#ff6e00" stroke="#e8eaee" stroke-width="1">
        <circle cx="2.5" cy="2.5" r="2.5" stroke="none"/>
        <circle cx="2.5" cy="2.5" r="2" fill="none"/>
      </g>
    </g>
    <g transform="translate(-3346 -5088)">
      <g id="Ellipse_1-75" data-name="Ellipse 1" transform="translate(3398 5173)" fill="#ff6e00" stroke="#e8eaee" stroke-width="1">
        <circle cx="2.5" cy="2.5" r="2.5" stroke="none"/>
        <circle cx="2.5" cy="2.5" r="2" fill="none"/>
      </g>
    </g>
    <g transform="translate(-3333 -5088)">
      <g id="Ellipse_1-76" data-name="Ellipse 1" transform="translate(3398 5173)" fill="#ff6e00" stroke="#e8eaee" stroke-width="1">
        <circle cx="2.5" cy="2.5" r="2.5" stroke="none"/>
        <circle cx="2.5" cy="2.5" r="2" fill="none"/>
      </g>
    </g>
    <g transform="translate(-3320 -5088)">
      <g id="Ellipse_1-77" data-name="Ellipse 1" transform="translate(3398 5173)" fill="#ff6e00" stroke="#e8eaee" stroke-width="1">
        <circle cx="2.5" cy="2.5" r="2.5" stroke="none"/>
        <circle cx="2.5" cy="2.5" r="2" fill="none"/>
      </g>
    </g>
    <g transform="translate(-3307 -5088)">
      <g id="Ellipse_1-78" data-name="Ellipse 1" transform="translate(3398 5173)" fill="#ff6e00" stroke="#e8eaee" stroke-width="1">
        <circle cx="2.5" cy="2.5" r="2.5" stroke="none"/>
        <circle cx="2.5" cy="2.5" r="2" fill="none"/>
      </g>
    </g>
    <g transform="translate(-3294 -5088)">
      <g id="Ellipse_1-79" data-name="Ellipse 1" transform="translate(3398 5173)" fill="#ff6e00" stroke="#e8eaee" stroke-width="1">
        <circle cx="2.5" cy="2.5" r="2.5" stroke="none"/>
        <circle cx="2.5" cy="2.5" r="2" fill="none"/>
      </g>
    </g>
    <g transform="translate(-3281 -5088)">
      <g id="Ellipse_1-80" data-name="Ellipse 1" transform="translate(3398 5173)" fill="#ff6e00" stroke="#e8eaee" stroke-width="1">
        <circle cx="2.5" cy="2.5" r="2.5" stroke="none"/>
        <circle cx="2.5" cy="2.5" r="2" fill="none"/>
      </g>
    </g>
    <g transform="translate(-3268 -5088)">
      <g id="Ellipse_1-81" data-name="Ellipse 1" transform="translate(3398 5173)" fill="#ff6e00" stroke="#e8eaee" stroke-width="1">
        <circle cx="2.5" cy="2.5" r="2.5" stroke="none"/>
        <circle cx="2.5" cy="2.5" r="2" fill="none"/>
      </g>
    </g>
    <g transform="translate(-3255 -5088)">
      <g id="Ellipse_1-82" data-name="Ellipse 1" transform="translate(3398 5173)" fill="#ff6e00" stroke="#e8eaee" stroke-width="1">
        <circle cx="2.5" cy="2.5" r="2.5" stroke="none"/>
        <circle cx="2.5" cy="2.5" r="2" fill="none"/>
      </g>
    </g>
    <g transform="translate(-3242 -5088)">
      <g id="Ellipse_1-83" data-name="Ellipse 1" transform="translate(3398 5173)" fill="#ff6e00" stroke="#e8eaee" stroke-width="1">
        <circle cx="2.5" cy="2.5" r="2.5" stroke="none"/>
        <circle cx="2.5" cy="2.5" r="2" fill="none"/>
      </g>
    </g>
    <g transform="translate(-3229 -5088)">
      <g id="Ellipse_1-84" data-name="Ellipse 1" transform="translate(3398 5173)" fill="#ff6e00" stroke="#e8eaee" stroke-width="1">
        <circle cx="2.5" cy="2.5" r="2.5" stroke="none"/>
        <circle cx="2.5" cy="2.5" r="2" fill="none"/>
      </g>
    </g>
    <g transform="translate(-3398 -5071)">
      <g id="Ellipse_1-85" data-name="Ellipse 1" transform="translate(3398 5173)" fill="#ff6e00" stroke="#e8eaee" stroke-width="1">
        <circle cx="2.5" cy="2.5" r="2.5" stroke="none"/>
        <circle cx="2.5" cy="2.5" r="2" fill="none"/>
      </g>
    </g>
    <g transform="translate(-3385 -5071)">
      <g id="Ellipse_1-86" data-name="Ellipse 1" transform="translate(3398 5173)" fill="#ff6e00" stroke="#e8eaee" stroke-width="1">
        <circle cx="2.5" cy="2.5" r="2.5" stroke="none"/>
        <circle cx="2.5" cy="2.5" r="2" fill="none"/>
      </g>
    </g>
    <g transform="translate(-3372 -5071)">
      <g id="Ellipse_1-87" data-name="Ellipse 1" transform="translate(3398 5173)" fill="#ff6e00" stroke="#e8eaee" stroke-width="1">
        <circle cx="2.5" cy="2.5" r="2.5" stroke="none"/>
        <circle cx="2.5" cy="2.5" r="2" fill="none"/>
      </g>
    </g>
    <g transform="translate(-3359 -5071)">
      <g id="Ellipse_1-88" data-name="Ellipse 1" transform="translate(3398 5173)" fill="#ff6e00" stroke="#e8eaee" stroke-width="1">
        <circle cx="2.5" cy="2.5" r="2.5" stroke="none"/>
        <circle cx="2.5" cy="2.5" r="2" fill="none"/>
      </g>
    </g>
    <g transform="translate(-3346 -5071)">
      <g id="Ellipse_1-89" data-name="Ellipse 1" transform="translate(3398 5173)" fill="#ff6e00" stroke="#e8eaee" stroke-width="1">
        <circle cx="2.5" cy="2.5" r="2.5" stroke="none"/>
        <circle cx="2.5" cy="2.5" r="2" fill="none"/>
      </g>
    </g>
    <g transform="translate(-3333 -5071)">
      <g id="Ellipse_1-90" data-name="Ellipse 1" transform="translate(3398 5173)" fill="#ff6e00" stroke="#e8eaee" stroke-width="1">
        <circle cx="2.5" cy="2.5" r="2.5" stroke="none"/>
        <circle cx="2.5" cy="2.5" r="2" fill="none"/>
      </g>
    </g>
    <g transform="translate(-3320 -5071)">
      <g id="Ellipse_1-91" data-name="Ellipse 1" transform="translate(3398 5173)" fill="#ff6e00" stroke="#e8eaee" stroke-width="1">
        <circle cx="2.5" cy="2.5" r="2.5" stroke="none"/>
        <circle cx="2.5" cy="2.5" r="2" fill="none"/>
      </g>
    </g>
    <g transform="translate(-3307 -5071)">
      <g id="Ellipse_1-92" data-name="Ellipse 1" transform="translate(3398 5173)" fill="#ff6e00" stroke="#e8eaee" stroke-width="1">
        <circle cx="2.5" cy="2.5" r="2.5" stroke="none"/>
        <circle cx="2.5" cy="2.5" r="2" fill="none"/>
      </g>
    </g>
    <g transform="translate(-3294 -5071)">
      <g id="Ellipse_1-93" data-name="Ellipse 1" transform="translate(3398 5173)" fill="#ff6e00" stroke="#e8eaee" stroke-width="1">
        <circle cx="2.5" cy="2.5" r="2.5" stroke="none"/>
        <circle cx="2.5" cy="2.5" r="2" fill="none"/>
      </g>
    </g>
    <g transform="translate(-3281 -5071)">
      <g id="Ellipse_1-94" data-name="Ellipse 1" transform="translate(3398 5173)" fill="#ff6e00" stroke="#e8eaee" stroke-width="1">
        <circle cx="2.5" cy="2.5" r="2.5" stroke="none"/>
        <circle cx="2.5" cy="2.5" r="2" fill="none"/>
      </g>
    </g>
    <g transform="translate(-3268 -5071)">
      <g id="Ellipse_1-95" data-name="Ellipse 1" transform="translate(3398 5173)" fill="#ff6e00" stroke="#e8eaee" stroke-width="1">
        <circle cx="2.5" cy="2.5" r="2.5" stroke="none"/>
        <circle cx="2.5" cy="2.5" r="2" fill="none"/>
      </g>
    </g>
    <g transform="translate(-3255 -5071)">
      <g id="Ellipse_1-96" data-name="Ellipse 1" transform="translate(3398 5173)" fill="#ff6e00" stroke="#e8eaee" stroke-width="1">
        <circle cx="2.5" cy="2.5" r="2.5" stroke="none"/>
        <circle cx="2.5" cy="2.5" r="2" fill="none"/>
      </g>
    </g>
    <g transform="translate(-3242 -5071)">
      <g id="Ellipse_1-97" data-name="Ellipse 1" transform="translate(3398 5173)" fill="#ff6e00" stroke="#e8eaee" stroke-width="1">
        <circle cx="2.5" cy="2.5" r="2.5" stroke="none"/>
        <circle cx="2.5" cy="2.5" r="2" fill="none"/>
      </g>
    </g>
    <g transform="translate(-3229 -5071)">
      <g id="Ellipse_1-98" data-name="Ellipse 1" transform="translate(3398 5173)" fill="#ff6e00" stroke="#e8eaee" stroke-width="1">
        <circle cx="2.5" cy="2.5" r="2.5" stroke="none"/>
        <circle cx="2.5" cy="2.5" r="2" fill="none"/>
      </g>
    </g>
    <g transform="translate(-3398 -5054)">
      <g id="Ellipse_1-99" data-name="Ellipse 1" transform="translate(3398 5173)" fill="#ff6e00" stroke="#e8eaee" stroke-width="1">
        <circle cx="2.5" cy="2.5" r="2.5" stroke="none"/>
        <circle cx="2.5" cy="2.5" r="2" fill="none"/>
      </g>
    </g>
    <g transform="translate(-3385 -5054)">
      <g id="Ellipse_1-100" data-name="Ellipse 1" transform="translate(3398 5173)" fill="#ff6e00" stroke="#e8eaee" stroke-width="1">
        <circle cx="2.5" cy="2.5" r="2.5" stroke="none"/>
        <circle cx="2.5" cy="2.5" r="2" fill="none"/>
      </g>
    </g>
    <g transform="translate(-3372 -5054)">
      <g id="Ellipse_1-101" data-name="Ellipse 1" transform="translate(3398 5173)" fill="#ff6e00" stroke="#e8eaee" stroke-width="1">
        <circle cx="2.5" cy="2.5" r="2.5" stroke="none"/>
        <circle cx="2.5" cy="2.5" r="2" fill="none"/>
      </g>
    </g>
    <g transform="translate(-3359 -5054)">
      <g id="Ellipse_1-102" data-name="Ellipse 1" transform="translate(3398 5173)" fill="#ff6e00" stroke="#e8eaee" stroke-width="1">
        <circle cx="2.5" cy="2.5" r="2.5" stroke="none"/>
        <circle cx="2.5" cy="2.5" r="2" fill="none"/>
      </g>
    </g>
    <g transform="translate(-3346 -5054)">
      <g id="Ellipse_1-103" data-name="Ellipse 1" transform="translate(3398 5173)" fill="#ff6e00" stroke="#e8eaee" stroke-width="1">
        <circle cx="2.5" cy="2.5" r="2.5" stroke="none"/>
        <circle cx="2.5" cy="2.5" r="2" fill="none"/>
      </g>
    </g>
    <g transform="translate(-3333 -5054)">
      <g id="Ellipse_1-104" data-name="Ellipse 1" transform="translate(3398 5173)" fill="#ff6e00" stroke="#e8eaee" stroke-width="1">
        <circle cx="2.5" cy="2.5" r="2.5" stroke="none"/>
        <circle cx="2.5" cy="2.5" r="2" fill="none"/>
      </g>
    </g>
    <g transform="translate(-3320 -5054)">
      <g id="Ellipse_1-105" data-name="Ellipse 1" transform="translate(3398 5173)" fill="#ff6e00" stroke="#e8eaee" stroke-width="1">
        <circle cx="2.5" cy="2.5" r="2.5" stroke="none"/>
        <circle cx="2.5" cy="2.5" r="2" fill="none"/>
      </g>
    </g>
    <g transform="translate(-3307 -5054)">
      <g id="Ellipse_1-106" data-name="Ellipse 1" transform="translate(3398 5173)" fill="#ff6e00" stroke="#e8eaee" stroke-width="1">
        <circle cx="2.5" cy="2.5" r="2.5" stroke="none"/>
        <circle cx="2.5" cy="2.5" r="2" fill="none"/>
      </g>
    </g>
    <g transform="translate(-3294 -5054)">
      <g id="Ellipse_1-107" data-name="Ellipse 1" transform="translate(3398 5173)" fill="#ff6e00" stroke="#e8eaee" stroke-width="1">
        <circle cx="2.5" cy="2.5" r="2.5" stroke="none"/>
        <circle cx="2.5" cy="2.5" r="2" fill="none"/>
      </g>
    </g>
    <g transform="translate(-3281 -5054)">
      <g id="Ellipse_1-108" data-name="Ellipse 1" transform="translate(3398 5173)" fill="#ff6e00" stroke="#e8eaee" stroke-width="1">
        <circle cx="2.5" cy="2.5" r="2.5" stroke="none"/>
        <circle cx="2.5" cy="2.5" r="2" fill="none"/>
      </g>
    </g>
    <g transform="translate(-3268 -5054)">
      <g id="Ellipse_1-109" data-name="Ellipse 1" transform="translate(3398 5173)" fill="#ff6e00" stroke="#e8eaee" stroke-width="1">
        <circle cx="2.5" cy="2.5" r="2.5" stroke="none"/>
        <circle cx="2.5" cy="2.5" r="2" fill="none"/>
      </g>
    </g>
    <g transform="translate(-3255 -5054)">
      <g id="Ellipse_1-110" data-name="Ellipse 1" transform="translate(3398 5173)" fill="#ff6e00" stroke="#e8eaee" stroke-width="1">
        <circle cx="2.5" cy="2.5" r="2.5" stroke="none"/>
        <circle cx="2.5" cy="2.5" r="2" fill="none"/>
      </g>
    </g>
    <g transform="translate(-3242 -5054)">
      <g id="Ellipse_1-111" data-name="Ellipse 1" transform="translate(3398 5173)" fill="#ff6e00" stroke="#e8eaee" stroke-width="1">
        <circle cx="2.5" cy="2.5" r="2.5" stroke="none"/>
        <circle cx="2.5" cy="2.5" r="2" fill="none"/>
      </g>
    </g>
    <g transform="translate(-3229 -5054)">
      <g id="Ellipse_1-112" data-name="Ellipse 1" transform="translate(3398 5173)" fill="#ff6e00" stroke="#e8eaee" stroke-width="1">
        <circle cx="2.5" cy="2.5" r="2.5" stroke="none"/>
        <circle cx="2.5" cy="2.5" r="2" fill="none"/>
      </g>
    </g>
    <g transform="translate(-3398 -5037)">
      <g id="Ellipse_1-113" data-name="Ellipse 1" transform="translate(3398 5173)" fill="#ff6e00" stroke="#e8eaee" stroke-width="1">
        <circle cx="2.5" cy="2.5" r="2.5" stroke="none"/>
        <circle cx="2.5" cy="2.5" r="2" fill="none"/>
      </g>
    </g>
    <g transform="translate(-3385 -5037)">
      <g id="Ellipse_1-114" data-name="Ellipse 1" transform="translate(3398 5173)" fill="#ff6e00" stroke="#e8eaee" stroke-width="1">
        <circle cx="2.5" cy="2.5" r="2.5" stroke="none"/>
        <circle cx="2.5" cy="2.5" r="2" fill="none"/>
      </g>
    </g>
    <g transform="translate(-3372 -5037)">
      <g id="Ellipse_1-115" data-name="Ellipse 1" transform="translate(3398 5173)" fill="#ff6e00" stroke="#e8eaee" stroke-width="1">
        <circle cx="2.5" cy="2.5" r="2.5" stroke="none"/>
        <circle cx="2.5" cy="2.5" r="2" fill="none"/>
      </g>
    </g>
    <g transform="translate(-3359 -5037)">
      <g id="Ellipse_1-116" data-name="Ellipse 1" transform="translate(3398 5173)" fill="#ff6e00" stroke="#e8eaee" stroke-width="1">
        <circle cx="2.5" cy="2.5" r="2.5" stroke="none"/>
        <circle cx="2.5" cy="2.5" r="2" fill="none"/>
      </g>
    </g>
    <g transform="translate(-3346 -5037)">
      <g id="Ellipse_1-117" data-name="Ellipse 1" transform="translate(3398 5173)" fill="#ff6e00" stroke="#e8eaee" stroke-width="1">
        <circle cx="2.5" cy="2.5" r="2.5" stroke="none"/>
        <circle cx="2.5" cy="2.5" r="2" fill="none"/>
      </g>
    </g>
    <g transform="translate(-3333 -5037)">
      <g id="Ellipse_1-118" data-name="Ellipse 1" transform="translate(3398 5173)" fill="#ff6e00" stroke="#e8eaee" stroke-width="1">
        <circle cx="2.5" cy="2.5" r="2.5" stroke="none"/>
        <circle cx="2.5" cy="2.5" r="2" fill="none"/>
      </g>
    </g>
    <g transform="translate(-3320 -5037)">
      <g id="Ellipse_1-119" data-name="Ellipse 1" transform="translate(3398 5173)" fill="#ff6e00" stroke="#e8eaee" stroke-width="1">
        <circle cx="2.5" cy="2.5" r="2.5" stroke="none"/>
        <circle cx="2.5" cy="2.5" r="2" fill="none"/>
      </g>
    </g>
    <g transform="translate(-3307 -5037)">
      <g id="Ellipse_1-120" data-name="Ellipse 1" transform="translate(3398 5173)" fill="#ff6e00" stroke="#e8eaee" stroke-width="1">
        <circle cx="2.5" cy="2.5" r="2.5" stroke="none"/>
        <circle cx="2.5" cy="2.5" r="2" fill="none"/>
      </g>
    </g>
    <g transform="translate(-3294 -5037)">
      <g id="Ellipse_1-121" data-name="Ellipse 1" transform="translate(3398 5173)" fill="#ff6e00" stroke="#e8eaee" stroke-width="1">
        <circle cx="2.5" cy="2.5" r="2.5" stroke="none"/>
        <circle cx="2.5" cy="2.5" r="2" fill="none"/>
      </g>
    </g>
    <g transform="translate(-3281 -5037)">
      <g id="Ellipse_1-122" data-name="Ellipse 1" transform="translate(3398 5173)" fill="#ff6e00" stroke="#e8eaee" stroke-width="1">
        <circle cx="2.5" cy="2.5" r="2.5" stroke="none"/>
        <circle cx="2.5" cy="2.5" r="2" fill="none"/>
      </g>
    </g>
    <g transform="translate(-3268 -5037)">
      <g id="Ellipse_1-123" data-name="Ellipse 1" transform="translate(3398 5173)" fill="#ff6e00" stroke="#e8eaee" stroke-width="1">
        <circle cx="2.5" cy="2.5" r="2.5" stroke="none"/>
        <circle cx="2.5" cy="2.5" r="2" fill="none"/>
      </g>
    </g>
    <g transform="translate(-3255 -5037)">
      <g id="Ellipse_1-124" data-name="Ellipse 1" transform="translate(3398 5173)" fill="#ff6e00" stroke="#e8eaee" stroke-width="1">
        <circle cx="2.5" cy="2.5" r="2.5" stroke="none"/>
        <circle cx="2.5" cy="2.5" r="2" fill="none"/>
      </g>
    </g>
    <g transform="translate(-3242 -5037)">
      <g id="Ellipse_1-125" data-name="Ellipse 1" transform="translate(3398 5173)" fill="#ff6e00" stroke="#e8eaee" stroke-width="1">
        <circle cx="2.5" cy="2.5" r="2.5" stroke="none"/>
        <circle cx="2.5" cy="2.5" r="2" fill="none"/>
      </g>
    </g>
    <g transform="translate(-3229 -5037)">
      <g id="Ellipse_1-126" data-name="Ellipse 1" transform="translate(3398 5173)" fill="#ff6e00" stroke="#e8eaee" stroke-width="1">
        <circle cx="2.5" cy="2.5" r="2.5" stroke="none"/>
        <circle cx="2.5" cy="2.5" r="2" fill="none"/>
      </g>
    </g>
  </g>
</svg>
