<svg xmlns="http://www.w3.org/2000/svg" width="90" height="90" viewBox="0 0 90 90">
  <g id="Play" transform="translate(-916 -3543)">
    <circle id="Ellipse_21" data-name="Ellipse 21" cx="45" cy="45" r="45" transform="translate(916 3543)" fill="#fff"/>
    <path id="Play-2" data-name="Play" d="M472.285,1760.168a1.766,1.766,0,0,1,1.733-3.077,26.507,26.507,0,1,0-5.744-4.365,1.766,1.766,0,0,1-2.5,2.5,29.839,29.839,0,1,1,6.508,4.945Zm9.625-11.916a1.765,1.765,0,0,1-1.016-1.6v-25.305a1.765,1.765,0,0,1,2.9-1.356l15.184,12.652a1.766,1.766,0,0,1,0,2.714L483.79,1748.01a1.768,1.768,0,0,1-1.879.242Z" transform="translate(474 1854)" fill="#ff6e00"/>
  </g>
</svg>
