<svg id="wifi-router" xmlns="http://www.w3.org/2000/svg" width="60" height="60" viewBox="0 0 60 60">
  <path id="Path_15" data-name="Path 15" d="M54.727,102.217H50.244l9.5-24.06a1.973,1.973,0,0,0-.923-2.506,1.709,1.709,0,0,0-2.308,1l-10.09,25.564H13.581L3.491,76.653a1.709,1.709,0,0,0-2.308-1,1.973,1.973,0,0,0-.923,2.506l9.5,24.06H5.273A5.52,5.52,0,0,0,0,107.942v11.452a5.52,5.52,0,0,0,5.273,5.726H7.148v2.036a1.838,1.838,0,0,0,1.758,1.909,1.838,1.838,0,0,0,1.758-1.909V125.12H49.336v2.036a1.764,1.764,0,1,0,3.516,0V125.12h1.875A5.52,5.52,0,0,0,60,119.394V107.942A5.52,5.52,0,0,0,54.727,102.217Zm1.758,17.177a1.84,1.84,0,0,1-1.758,1.909H5.273a1.84,1.84,0,0,1-1.758-1.909V107.942a1.84,1.84,0,0,1,1.758-1.909H54.727a1.84,1.84,0,0,1,1.758,1.909Z" transform="translate(0 -69.064)" fill="#ff9b50"/>
  <path id="Path_16" data-name="Path 16" d="M220.318,196.915a1.608,1.608,0,1,0,2.274,2.274,1.588,1.588,0,0,1,2.261,0,1.608,1.608,0,0,0,2.274-2.274,4.8,4.8,0,0,0-6.809,0Z" transform="translate(-193.723 -172.77)" fill="#ff9b50"/>
  <path id="Path_17" data-name="Path 17" d="M95.64,24.846a26.469,26.469,0,0,1,33.878,0,2.038,2.038,0,0,0,2.606,0,1.468,1.468,0,0,0,0-2.274,30.544,30.544,0,0,0-39.092,0,1.467,1.467,0,0,0,0,2.274A2.038,2.038,0,0,0,95.64,24.846Z" transform="translate(-82.579 -15.5)" fill="#ff9b50"/>
  <path id="Path_18" data-name="Path 18" d="M160.427,82.961a1.608,1.608,0,0,0,0-2.274,17.67,17.67,0,0,0-25.013,0,1.608,1.608,0,0,0,2.275,2.273,14.454,14.454,0,0,1,20.462,0A1.608,1.608,0,0,0,160.427,82.961Z" transform="translate(-117.922 -69.068)" fill="#ff9b50"/>
  <path id="Path_19" data-name="Path 19" d="M193.772,141.074a1.608,1.608,0,0,0,0-2.274,11.241,11.241,0,0,0-15.912,0,1.608,1.608,0,0,0,2.274,2.274,8.025,8.025,0,0,1,11.364,0A1.608,1.608,0,0,0,193.772,141.074Z" transform="translate(-155.816 -120.252)" fill="#ff9b50"/>
  <path id="Path_20" data-name="Path 20" d="M302.608,345.5A1.608,1.608,0,0,0,301,347.108v3.216a1.608,1.608,0,0,0,3.216,0v-3.216A1.608,1.608,0,0,0,302.608,345.5Z" transform="translate(-265.539 -303.511)" fill="#ff9b50"/>
  <path id="Path_21" data-name="Path 21" d="M362.608,345.5A1.608,1.608,0,0,0,361,347.108v3.216a1.608,1.608,0,0,0,3.216,0v-3.216A1.608,1.608,0,0,0,362.608,345.5Z" transform="translate(-318.471 -303.511)" fill="#ff9b50"/>
  <path id="Path_22" data-name="Path 22" d="M422.608,345.5A1.608,1.608,0,0,0,421,347.108v3.216a1.608,1.608,0,0,0,3.216,0v-3.216A1.608,1.608,0,0,0,422.608,345.5Z" transform="translate(-370.755 -303.511)" fill="#ff9b50"/>
</svg>
